<svg width="24" height="24" viewBox="0 0 24 24" fill="none" xmlns="http://www.w3.org/2000/svg">
<path d="M21.6486 19.8736C20.2208 17.4052 18.0205 15.6352 15.4527 14.7961C16.7229 14.04 17.7097 12.8878 18.2616 11.5166C18.8136 10.1453 18.9002 8.63077 18.5081 7.20554C18.116 5.78031 17.2668 4.5232 16.0911 3.62726C14.9154 2.73132 13.4781 2.24609 11.9999 2.24609C10.5217 2.24609 9.08438 2.73132 7.90866 3.62726C6.73294 4.5232 5.88382 5.78031 5.49171 7.20554C5.09959 8.63077 5.18616 10.1453 5.73813 11.5166C6.29009 12.8878 7.27692 14.04 8.54708 14.7961C5.97926 15.6343 3.77895 17.4043 2.35114 19.8736C2.29878 19.959 2.26405 20.054 2.249 20.153C2.23394 20.2521 2.23888 20.3531 2.2635 20.4502C2.28813 20.5472 2.33195 20.6384 2.39238 20.7183C2.45281 20.7981 2.52862 20.8651 2.61535 20.9152C2.70207 20.9653 2.79795 20.9975 2.89733 21.0099C2.99671 21.0224 3.09757 21.0148 3.19397 20.9876C3.29037 20.9604 3.38034 20.9142 3.45859 20.8517C3.53684 20.7892 3.60178 20.7117 3.64958 20.6236C5.41583 17.5711 8.5377 15.7486 11.9999 15.7486C15.4621 15.7486 18.584 17.5711 20.3502 20.6236C20.398 20.7117 20.4629 20.7892 20.5412 20.8517C20.6194 20.9142 20.7094 20.9604 20.8058 20.9876C20.9022 21.0148 21.0031 21.0224 21.1024 21.0099C21.2018 20.9975 21.2977 20.9653 21.3844 20.9152C21.4712 20.8651 21.547 20.7981 21.6074 20.7183C21.6678 20.6384 21.7116 20.5472 21.7363 20.4502C21.7609 20.3531 21.7658 20.2521 21.7508 20.153C21.7357 20.054 21.701 19.959 21.6486 19.8736ZM6.74989 8.99864C6.74989 7.96029 7.05779 6.94526 7.63467 6.0819C8.21155 5.21854 9.03149 4.54564 9.9908 4.14828C10.9501 3.75092 12.0057 3.64695 13.0241 3.84952C14.0425 4.05209 14.978 4.55211 15.7122 5.28633C16.4464 6.02056 16.9464 6.95602 17.149 7.97442C17.3516 8.99282 17.2476 10.0484 16.8503 11.0077C16.4529 11.967 15.78 12.787 14.9166 13.3639C14.0533 13.9407 13.0382 14.2486 11.9999 14.2486C10.608 14.2472 9.27347 13.6936 8.28922 12.7093C7.30498 11.7251 6.75138 10.3906 6.74989 8.99864Z" fill="#fff"/>
</svg>
